# xmcd CD database file
#
# Track frame offsets:
#	150
#	26029
#	42676
#	56633
#	77694
#	91228
#	107201
#	121522
#	137828
#	154549
#	170810
#	191798
#	206233
#	227116
#	240234
#
# Disc length: 3452 seconds
#
# Revision: 0
# Processed by: cddbd v1.5.2PL0 Copyright (c) Steve Scherf et al.
# Submitted via: CDex 1.51
#
DISCID=cc0d7a0f
DTITLE=David Nevue - Whisperings
DYEAR=1999
DGENRE=New Age
TTITLE0=While the Trees Sleep
TTITLE1=Home
TTITLE2=Ascending with Angels
TTITLE3=Light
TTITLE4=Solitude
TTITLE5=A Turn to Grace
TTITLE6=The Emerald Valley
TTITLE7=Joy
TTITLE8=The Gathering Fields
TTITLE9=Psalm 77
TTITLE10=Dance of the Muse
TTITLE11=Be Thou My Vision
TTITLE12=The Vigil
TTITLE13=Voice in the Wilderness
TTITLE14=No More Tears
EXTD=YEAR: 1999
EXTT0=
EXTT1=
EXTT2=
EXTT3=
EXTT4=
EXTT5=
EXTT6=
EXTT7=
EXTT8=
EXTT9=
EXTT10=
EXTT11=
EXTT12=
EXTT13=
EXTT14=
PLAYORDER=
